<?xml version="1.0" encoding="utf-8"?>
<!-- Generator: Adobe Illustrator 25.4.1, SVG Export Plug-In . SVG Version: 6.00 Build 0)  -->
<svg version="1.1" id="Layer_1" xmlns="http://www.w3.org/2000/svg" xmlns:xlink="http://www.w3.org/1999/xlink" x="0px" y="0px"
	 viewBox="0 0 40 40" style="enable-background:new 0 0 40 40;" xml:space="preserve">
<style type="text/css">
	.st0{fill:#D4E6D9;}
	.st1{opacity:0.85;}
</style>
<rect x="0.9" y="20.1" class="st0" width="38.5" height="17.4"/>
<path class="st1" d="M19.9,0.1c-2.3,0-3.9,1-4.6,2.6c-0.6,1.4-0.5,3-0.1,4.7c-0.2,0.3-0.4,0.8-0.3,1.3c0.1,0.6,0.2,1.1,0.5,1.5
	c0.1,0.1,0.3,0.1,0.4,0.2c0.1,0.5,0.2,1,0.4,1.4c0.1,0.3,0.3,0.5,0.4,0.7c0,0,0.1,0.1,0.1,0.1c0,0.5,0,0.9,0,1.4
	c-0.1,0.3-0.4,0.5-0.9,0.8c-0.4,0.2-1.1,0.5-1.7,0.8c-0.8-0.7-1.6-1.2-2.3-1.5c-0.5-0.2-0.8-0.4-1.1-0.5c-0.2-0.1-0.3-0.2-0.3-0.3
	c0-0.3,0-0.6,0-1c0,0,0,0,0.1-0.1c0.1-0.2,0.3-0.4,0.4-0.6c0.2-0.3,0.3-0.7,0.4-1.1c0.1-0.1,0.2-0.1,0.3-0.2C11.8,10,12,9.5,12.1,9
	c0.1-0.5-0.1-0.8-0.3-1.1c0.2-0.6,0.4-1.5,0.3-2.5c0-0.6-0.2-1.2-0.6-1.8c-0.4-0.5-1-0.9-1.7-1C9.3,2.1,8.6,1.9,7.8,1.9c0,0,0,0,0,0
	C5.9,1.9,4.5,2.8,3.9,4C3.4,5.2,3.5,6.5,3.8,7.9C3.7,8.2,3.5,8.5,3.6,9c0.1,0.5,0.2,0.9,0.5,1.3c0.1,0.1,0.2,0.1,0.3,0.2
	c0.1,0.4,0.2,0.8,0.4,1.1C4.9,11.8,5,12,5.2,12.1c0,0,0,0,0.1,0.1c0,0.3,0,0.7,0,1c-0.1,0.1-0.2,0.3-0.6,0.5
	c-0.4,0.2-1.1,0.5-1.7,0.8c-0.7,0.3-1.3,0.7-1.9,1.3c-0.6,0.6-1,1.5-1,2.5h1.7c0-0.6,0.2-1,0.5-1.3c0.3-0.3,0.8-0.7,1.4-0.9
	c0.6-0.3,1.2-0.5,1.8-0.9s1.2-0.7,1.5-1.5c0-0.1,0-0.1,0.1-0.2c0.1-0.7,0-1.2,0-1.7c0-0.3-0.1-0.6-0.4-0.7c0,0,0,0-0.1-0.1
	c-0.1-0.1-0.1-0.2-0.2-0.3C6.1,10.4,6,10.1,6,9.9c0-0.3-0.3-0.6-0.6-0.7c0,0-0.1-0.1-0.1-0.4c0,0,0,0,0,0c0.2-0.2,0.3-0.6,0.3-0.9
	C5.2,6.6,5.2,5.4,5.5,4.7c0.3-0.7,0.8-1.1,2.3-1.1c0.7,0,1,0.2,1,0.2c0.1,0.2,0.4,0.4,0.6,0.4c0.4,0.1,0.6,0.2,0.7,0.4
	c0.1,0.2,0.2,0.5,0.3,0.9c0.1,0.8-0.2,1.8-0.3,2.3c-0.1,0.3,0,0.7,0.3,0.9c0,0,0,0,0,0c0,0.3-0.1,0.3-0.1,0.4
	C9.9,9.3,9.7,9.6,9.7,9.9c0,0.2-0.1,0.6-0.3,0.8C9.3,10.9,9.2,11,9.1,11c-0.1,0.1-0.1,0.1,0,0c-0.3,0.2-0.5,0.4-0.5,0.8
	c0,0.5-0.1,1,0,1.7c0,0.1,0,0.2,0.1,0.2c0.2,0.6,0.6,1,1.1,1.2c0.4,0.3,0.9,0.5,1.3,0.7c0.9,0.4,1.7,0.8,2.2,1.4
	c0.3,0.3,0.7,0.4,1.1,0.2c0.7-0.4,1.5-0.7,2.2-1c0.7-0.4,1.5-0.9,1.8-1.8c0-0.1,0-0.1,0.1-0.2c0.1-0.8,0-1.4,0-2.1
	c0-0.3-0.2-0.6-0.5-0.8c0.1,0.1,0.1,0,0,0c-0.1-0.1-0.2-0.3-0.3-0.4c-0.2-0.4-0.3-0.8-0.4-1.2c0-0.4-0.3-0.7-0.7-0.7
	c0,0-0.1-0.2-0.2-0.6c0-0.1,0-0.1,0-0.2C17,8.1,17.1,7.8,17,7.4c-0.4-1.7-0.5-3.1-0.1-4c0.4-0.9,1.1-1.5,3-1.5
	c0.9,0,1.3,0.3,1.4,0.4c0.1,0.2,0.4,0.4,0.6,0.4c0.6,0.1,0.8,0.3,1,0.6c0.2,0.3,0.3,0.7,0.4,1.2c0.1,1-0.2,2.3-0.4,2.9
	c-0.1,0.4,0,0.7,0.3,1c0,0,0,0.1,0,0.2c0,0.4-0.1,0.5-0.2,0.6c-0.4,0.1-0.6,0.4-0.7,0.7c0,0.3-0.2,0.8-0.4,1.2
	c-0.1,0.2-0.2,0.3-0.2,0.4c-0.1,0.1-0.2,0.1,0,0c-0.3,0.1-0.5,0.4-0.5,0.8c0,0.7,0,1.2,0,2.1c0,0.1,0,0.2,0.1,0.2
	c0.3,0.9,1.1,1.4,1.8,1.8c0.7,0.4,1.5,0.7,2.2,1c0.4,0.2,0.8,0.1,1.1-0.2c0.5-0.6,1.3-1,2.2-1.4c0.4-0.2,0.9-0.4,1.3-0.7
	c0.4-0.3,0.9-0.7,1.1-1.2c0-0.1,0-0.1,0.1-0.2c0.1-0.7,0-1.2,0-1.7c0-0.3-0.1-0.6-0.4-0.7c0,0,0,0-0.1-0.1c-0.1-0.1-0.1-0.2-0.2-0.3
	c-0.2-0.3-0.3-0.6-0.3-0.8c0-0.3-0.3-0.6-0.6-0.7c0,0-0.1-0.1-0.1-0.4c0,0,0,0,0,0c0.2-0.2,0.3-0.6,0.3-0.9
	c-0.3-1.3-0.4-2.5-0.1-3.2c0.3-0.7,0.8-1.1,2.3-1.1c0.7,0,1,0.2,1,0.2c0.1,0.2,0.4,0.4,0.6,0.4c0.4,0.1,0.6,0.2,0.7,0.4
	c0.1,0.2,0.2,0.5,0.3,0.9c0.1,0.8-0.2,1.8-0.3,2.3c-0.1,0.3,0,0.7,0.3,0.9c0,0,0,0,0,0c0,0.3-0.1,0.3-0.1,0.4
	C34.2,9.3,34,9.5,34,9.9c0,0.2-0.1,0.6-0.3,0.8c-0.1,0.1-0.2,0.3-0.2,0.3c-0.1,0.1-0.1,0.1,0,0c-0.3,0.2-0.5,0.4-0.5,0.8
	c0,0.5-0.1,1,0,1.7c0,0.1,0,0.2,0.1,0.2c0.3,0.8,0.9,1.2,1.5,1.5c0.6,0.3,1.2,0.5,1.8,0.8s1.1,0.6,1.4,0.9c0.3,0.4,0.5,0.7,0.5,1.4
	h1.7c0-1.1-0.4-1.9-0.9-2.6c-0.6-0.6-1.3-1-1.9-1.3c-0.7-0.3-1.3-0.5-1.7-0.8c-0.4-0.2-0.6-0.4-0.6-0.5c0-0.3,0-0.6,0-1
	c0,0,0,0,0.1-0.1c0.1-0.2,0.3-0.4,0.4-0.6c0.2-0.3,0.3-0.7,0.4-1.1c0.1-0.1,0.2-0.1,0.3-0.2c0.3-0.3,0.4-0.7,0.5-1.3
	c0.1-0.5-0.1-0.8-0.3-1.1c0.2-0.6,0.4-1.5,0.3-2.5c0-0.6-0.2-1.2-0.6-1.8c-0.4-0.5-1-0.9-1.7-1c-0.5-0.5-1.3-0.7-2.1-0.7
	c0,0,0,0,0,0c-1.9,0-3.3,0.9-3.8,2.2c-0.5,1.2-0.4,2.5-0.1,3.9C28,8.2,27.8,8.5,27.9,9c0,0,0,0,0,0c0.1,0.5,0.2,0.9,0.5,1.3
	c0.1,0.1,0.2,0.1,0.3,0.2c0.1,0.4,0.2,0.8,0.4,1.1c0.1,0.2,0.3,0.4,0.4,0.6c0,0,0,0,0.1,0.1c0,0.3,0,0.7,0,1c0,0.1-0.1,0.2-0.3,0.3
	c-0.3,0.2-0.6,0.3-1.1,0.5c-0.7,0.3-1.6,0.8-2.3,1.5c-0.6-0.3-1.2-0.6-1.7-0.8c-0.6-0.3-0.8-0.5-0.9-0.8c0-0.5,0-0.9,0-1.4
	c0,0,0.1-0.1,0.1-0.1c0.1-0.2,0.3-0.4,0.4-0.7c0.2-0.4,0.3-0.9,0.4-1.3c0.1-0.1,0.3-0.1,0.4-0.2c0.3-0.4,0.5-0.8,0.5-1.5
	c0,0,0,0,0,0c0.1-0.5-0.1-0.9-0.3-1.3c0.2-0.8,0.5-1.9,0.4-3.1c-0.1-0.7-0.2-1.5-0.7-2.1c-0.4-0.6-1.1-1-2-1.2
	C21.8,0.4,20.9,0.1,19.9,0.1C19.9,0.1,19.9,0.1,19.9,0.1z M6.6,19.2C6.6,19.2,6.5,19.2,6.6,19.2H0V25c0,0,0,0,0,0v7.4c0,0,0,0,0,0
	v5.8h6.5c0,0,0,0,0,0h26.8c0,0,0,0,0,0h6.5v-5.8c0,0,0,0,0,0V25c0,0,0,0,0,0v-5.8h-6.5c0,0,0,0,0,0H6.6z M1.7,20.9h2
	c-0.2,0.3-0.3,0.7-0.4,0.9c-0.1,0.3-0.2,0.5-0.2,0.4c0,0-0.1,0.1-0.4,0.2c-0.3,0.1-0.6,0.2-1,0.4V20.9z M6.6,20.9h26.8
	c0.8,0,1,0.3,1.3,0.8c0.1,0.2,0.3,0.5,0.4,0.9c0.1,0.3,0.2,0.6,0.6,1c0.3,0.3,0.7,0.4,1,0.6c0.3,0.1,0.6,0.2,0.9,0.4
	s0.5,0.3,0.6,0.4c0.1,0.1,0.1,0.1,0.1,0.2v7.4c0,0.1,0,0.1-0.1,0.2c-0.1,0.1-0.3,0.2-0.6,0.4c-0.3,0.1-0.6,0.2-0.9,0.4
	c-0.3,0.1-0.7,0.2-1,0.6c-0.3,0.3-0.4,0.7-0.6,1c-0.1,0.3-0.3,0.6-0.4,0.9c-0.3,0.5-0.5,0.8-1.3,0.8H6.6c-0.8,0-1-0.3-1.3-0.8
	c-0.1-0.2-0.3-0.5-0.4-0.9c-0.1-0.3-0.2-0.6-0.6-1c-0.3-0.3-0.7-0.4-1-0.6C3,33.2,2.7,33.1,2.4,33c-0.3-0.1-0.5-0.3-0.6-0.4
	c-0.1-0.1-0.1-0.1-0.1-0.2V25c0-0.1,0-0.1,0-0.1c0,0,0-0.1,0.1-0.1c0.1-0.1,0.3-0.2,0.6-0.4s0.6-0.2,0.9-0.4c0.3-0.1,0.7-0.2,1-0.6
	c0.3-0.3,0.4-0.7,0.6-1c0.1-0.3,0.3-0.6,0.4-0.9C5.6,21.2,5.8,20.9,6.6,20.9z M36.2,20.9h2v1.9c-0.4-0.2-0.7-0.3-1-0.4
	c-0.3-0.1-0.4-0.2-0.4-0.2c0,0-0.1-0.1-0.2-0.4C36.5,21.6,36.4,21.3,36.2,20.9z M20,22.7c-3.3,0-6.1,2.7-6.1,6.1s2.7,6.1,6.1,6.1
	s6.1-2.7,6.1-6.1S23.3,22.7,20,22.7z M20,24.4c2.4,0,4.3,1.9,4.3,4.3s-1.9,4.3-4.3,4.3s-4.3-1.9-4.3-4.3S17.6,24.4,20,24.4z M7.8,27
	c-0.9,0-1.7,0.8-1.7,1.7s0.8,1.7,1.7,1.7s1.7-0.8,1.7-1.7S8.8,27,7.8,27z M32.1,27c-0.9,0-1.7,0.8-1.7,1.7s0.8,1.7,1.7,1.7
	c0.9,0,1.7-0.8,1.7-1.7S33.1,27,32.1,27z M1.7,34.6c0.4,0.2,0.7,0.3,1,0.4c0.3,0.1,0.4,0.2,0.4,0.2c0,0,0.1,0.1,0.2,0.4
	c0.1,0.3,0.2,0.6,0.4,0.9h-2V34.6z M38.2,34.6v1.9h-2c0.2-0.3,0.3-0.7,0.4-0.9c0.1-0.3,0.2-0.5,0.2-0.4c0,0,0.1-0.1,0.4-0.2
	C37.5,34.9,37.8,34.8,38.2,34.6z"/>
</svg>
