<?xml version="1.0" encoding="utf-8"?>
<!-- Generator: Adobe Illustrator 25.4.1, SVG Export Plug-In . SVG Version: 6.00 Build 0)  -->
<svg version="1.1" id="Layer_1" xmlns="http://www.w3.org/2000/svg" xmlns:xlink="http://www.w3.org/1999/xlink" x="0px" y="0px"
	 viewBox="0 0 40 40" style="enable-background:new 0 0 40 40;" xml:space="preserve">
<style type="text/css">
	.st0{opacity:0.85;fill:#E2E0EF;}
	.st1{fill:#1A1A1A;}
</style>
<polygon class="st0" points="30.6,30.1 29.3,34.2 15.7,34.2 18,32.6 22.1,26 28.4,18.4 27.7,16 24.8,15.3 17.2,22.4 15.7,20.9 
	15.7,6.8 19.8,5.1 21.6,1 29,1 31.1,5.6 35.3,6.9 35.3,28.3 "/>
<path class="st1" d="M34.5,0H16.1c-0.8,0-1.5,0.7-1.5,1.5v10.8l-2.6,0l0,0c-1.8,0-3.3,1.2-3.7,2.9L5.7,25.4
	c-0.3-0.1-0.6-0.1-0.9,0.1l-2.3,2.3c-0.3,0.3-0.3,0.8,0,1.1c0.3,0.3,0.8,0.3,1.1,0l1.8-1.8l9.7,9.7l-1.8,1.8c-0.3,0.3-0.3,0.8,0,1.1
	c0.1,0.1,0.3,0.2,0.5,0.2c0.2,0,0.4-0.1,0.5-0.2l2.3-2.3c0.3-0.3,0.3-0.8,0-1.1l-1.2-1.2c3.5-1,5.9-5.3,6.7-8c0.1-0.4,0.3-0.7,0.6-1
	l5.4-5.4c1.3-1.3,1.3-3.5,0-4.9c-0.7-0.7-1.5-1-2.4-1h0c-0.9,0-1.8,0.4-2.4,1l-5.5,5.5c0,0-0.1,0.1-0.1,0.1
	c-0.2,0.1-0.4,0.1-0.5,0.1c-0.2-0.1-0.4-0.3-0.5-0.5l-0.3-1c-0.1-0.4-0.6-0.6-1-0.5c-0.4,0.1-0.6,0.6-0.5,1l0.3,1
	c0.2,0.7,0.8,1.2,1.5,1.5c0.7,0.2,1.3,0.1,1.9-0.3c0.1-0.1,0.2-0.2,0.3-0.2l5.5-5.5c0.4-0.4,0.8-0.6,1.4-0.6c0,0,0,0,0,0
	c0.5,0,1,0.2,1.4,0.6c0.7,0.7,0.7,2,0,2.7l-5.4,5.4c-0.5,0.5-0.8,1.1-1,1.7c-0.8,2.9-3.3,6.9-6.5,7.1l-7.1-7.1l2.7-11.1
	c0.3-1,1.2-1.8,2.2-1.8h0l2.6,0v3.1c0,0.4,0.3,0.8,0.8,0.8c0.4,0,0.8-0.3,0.8-0.8V7.6c3.2-0.4,5.7-2.9,6.1-6.1h6.2
	c0.4,3.2,2.9,5.7,6.1,6.1v20.1c-3.2,0.4-5.7,2.9-6.1,6.1h-8.1c-0.4,0-0.8,0.3-0.8,0.8c0,0.4,0.3,0.8,0.8,0.8h14.2
	c0.8,0,1.5-0.7,1.5-1.5V1.5C36,0.7,35.4,0,34.5,0z M16.1,6.1V1.5h4.5C20.3,3.9,18.4,5.7,16.1,6.1z M34.5,33.8H30
	c0.3-2.3,2.2-4.2,4.5-4.5V33.8z M34.5,6.1c-2.3-0.3-4.2-2.2-4.5-4.5h4.5V6.1z M27.6,23.3c-0.4,0.2-0.6,0.6-0.4,1
	c0.1,0.3,0.4,0.5,0.7,0.5c0.1,0,0.2,0,0.3-0.1c2.9-1.2,4.8-4,4.8-7.1c0-4.2-3.4-7.7-7.7-7.7c-4.1,0-7.4,3.2-7.7,7.2
	c0,0.4,0.3,0.8,0.7,0.8c0.4,0,0.8-0.3,0.8-0.7c0.2-3.2,2.9-5.8,6.1-5.8c3.4,0,6.1,2.8,6.1,6.1C31.4,20.2,29.9,22.4,27.6,23.3z"/>
</svg>
