<svg xmlns="http://www.w3.org/2000/svg"  viewBox="0 0 64 64" width="64px" height="64px"><path fill="#c4a2fc" d="M42,21A21,21,0,1,0,63,42,21.02359,21.02359,0,0,0,42,21ZM55.35645,33.13379l1.73242-1a1.00016,1.00016,0,1,1,1,1.73242l-1.73242,1a1.00016,1.00016,0,1,1-1-1.73242ZM41,24a1,1,0,0,1,2,0v2a1,1,0,0,1-2,0ZM23,42a.99974.99974,0,0,1,1-1h2a1,1,0,0,1,0,2H24A.99974.99974,0,0,1,23,42Zm5.64355,8.86621-1.73193,1a1.00016,1.00016,0,1,1-1-1.73242l1.73193-1a1.00016,1.00016,0,1,1,1,1.73242ZM29.00977,34.5a1.00061,1.00061,0,0,1-1.36622.36621l-1.73193-1a1.00016,1.00016,0,1,1,1-1.73242l1.73193,1A1.00032,1.00032,0,0,1,29.00977,34.5Zm5.85644,21.85645-1,1.73242a1.00016,1.00016,0,1,1-1.73242-1l1-1.73242a1.00016,1.00016,0,1,1,1.73242,1ZM34.5,29.00977a1.00062,1.00062,0,0,1-1.36621-.36622l-1-1.73193a1.00016,1.00016,0,1,1,1.73242-1l1,1.73193A1,1,0,0,1,34.5,29.00977ZM43,60a1,1,0,0,1-2,0V58a1,1,0,0,1,2,0Zm4-9.33984a1.0006,1.0006,0,0,1-1.36621-.36621l-3-5.19629a.94645.94645,0,0,1-.05255-.15625,2.99217,2.99217,0,0,1-1.54639-5.7685A.94876.94876,0,0,1,41,39V30a1,1,0,0,1,2,0v9a.94876.94876,0,0,1-.03485.17291,2.97053,2.97053,0,0,1,1.28473,4.79261.948.948,0,0,1,.11633.13214l3,5.19629A.99988.99988,0,0,1,47,50.66016Zm4.5,7.79492a1.0006,1.0006,0,0,1-1.36621-.36621l-1-1.73242a1.00016,1.00016,0,1,1,1.73242-1l1,1.73242A.99988.99988,0,0,1,51.5,58.45508Zm.36621-31.54346-1,1.73193a1.00016,1.00016,0,1,1-1.73242-1l1-1.73193a1.00016,1.00016,0,0,1,1.73242,1ZM58.45508,51.5a1.0006,1.0006,0,0,1-1.36621.36621l-1.73242-1a1.00016,1.00016,0,1,1,1-1.73242l1.73242,1A.99988.99988,0,0,1,58.45508,51.5ZM60,43H58a1,1,0,0,1,0-2h2a1,1,0,0,1,0,2Z"/><path fill="#151a6a" d="M11,6a5,5,0,1,0-6,4.89893v3.20214a4.99994,4.99994,0,0,0,0,9.79786v3.20214a4.99994,4.99994,0,0,0,0,9.79786v3.20214a5,5,0,1,0,2,0V36.89893a4.99994,4.99994,0,0,0,0-9.79786V23.89893a4.99994,4.99994,0,0,0,0-9.79786V10.89893A5.00837,5.00837,0,0,0,11,6ZM9,45a3,3,0,1,1-3-3A3.00328,3.00328,0,0,1,9,45ZM9,32a3,3,0,1,1-3-3A3.00328,3.00328,0,0,1,9,32ZM9,19a3,3,0,1,1-3-3A3.00328,3.00328,0,0,1,9,19ZM6,9A3,3,0,1,1,9,6,3.00328,3.00328,0,0,1,6,9Z"/><path fill="#151a6a" d="M15,4H50a1,1,0,0,0,0-2H15a1,1,0,0,0,0,2Z"/><path fill="#151a6a" d="M15,10H29a1,1,0,0,0,0-2H15a1,1,0,0,0,0,2Z"/><path fill="#151a6a" d="M50,15H15a1,1,0,0,0,0,2H50a1,1,0,0,0,0-2Z"/><path fill="#151a6a" d="M15,23H29a1,1,0,0,0,0-2H15a1,1,0,0,0,0,2Z"/><path fill="#151a6a" d="M50,28H15a1,1,0,0,0,0,2H50a1,1,0,0,0,0-2Z"/><path fill="#151a6a" d="M15,36H29a1,1,0,0,0,0-2H15a1,1,0,0,0,0,2Z"/><path fill="#151a6a" d="M50,41H15a1,1,0,0,0,0,2H50a1,1,0,0,0,0-2Z"/><path fill="#151a6a" d="M29,47H15a1,1,0,0,0,0,2H29a1,1,0,0,0,0-2Z"/></svg>