<svg xmlns="http://www.w3.org/2000/svg"  viewBox="0 0 48 48" width="96px" height="96px"><path fill="#33c481" d="M23,43v-3c0-0.553,0.448-1,1-1s1,0.447,1,1v3c0,0.553-0.448,1-1,1S23,43.553,23,43z"/><linearGradient id="E~_JSm0u_~mqhRwdDvrPVa" x1="-9.8" x2="24.724" y1="14.949" y2="49.473" gradientUnits="userSpaceOnUse"><stop offset="0" stop-color="#33c481"/><stop offset="1" stop-color="#21a366"/></linearGradient><path fill="url(#E~_JSm0u_~mqhRwdDvrPVa)" d="M9.858,36.728l2.121-2.121c0.391-0.391,1.024-0.39,1.414,0s0.391,1.023,0,1.414l-2.121,2.121	c-0.391,0.391-1.024,0.39-1.414,0S9.467,37.119,9.858,36.728z"/><linearGradient id="E~_JSm0u_~mqhRwdDvrPVb" x1="-9.8" x2="24.724" y1="14.949" y2="49.473" gradientUnits="userSpaceOnUse"><stop offset="0" stop-color="#33c481"/><stop offset="1" stop-color="#21a366"/></linearGradient><path fill="url(#E~_JSm0u_~mqhRwdDvrPVb)" d="M13.393,34.607c0.39,0.39,0.391,1.023,0,1.414l-2.121,2.121c-0.391,0.391-1.024,0.39-1.414,0	s-0.391-1.023,0-1.414l2.121-2.121C12.37,34.216,13.003,34.216,13.393,34.607z"/><linearGradient id="E~_JSm0u_~mqhRwdDvrPVc" x1="-9.373" x2="25.151" y1="14.522" y2="49.046" gradientUnits="userSpaceOnUse"><stop offset="0" stop-color="#33c481"/><stop offset="1" stop-color="#21a366"/></linearGradient><path fill="url(#E~_JSm0u_~mqhRwdDvrPVc)" d="M10.998,31.48c0.275,0.478,0.111,1.09-0.368,1.365l-2.6,1.496	c-0.479,0.276-1.09,0.11-1.365-0.368c-0.275-0.478-0.111-1.09,0.368-1.365l2.6-1.496C10.112,30.836,10.723,31.002,10.998,31.48z"/><linearGradient id="E~_JSm0u_~mqhRwdDvrPVd" x1="-8.142" x2="26.382" y1="13.291" y2="47.815" gradientUnits="userSpaceOnUse"><stop offset="0" stop-color="#33c481"/><stop offset="1" stop-color="#21a366"/></linearGradient><path fill="url(#E~_JSm0u_~mqhRwdDvrPVd)" d="M9.511,27.882c0.143,0.533-0.173,1.082-0.707,1.225l-2.898,0.776	c-0.534,0.143-1.082-0.174-1.225-0.707c-0.143-0.533,0.173-1.082,0.707-1.225l2.898-0.776C8.821,27.032,9.368,27.349,9.511,27.882z"/><path fill="#61e3a7" d="M33.987,41.33c-0.478,0.276-1.09,0.112-1.366-0.367l-1.498-2.599	c-0.276-0.479-0.111-1.09,0.367-1.366s1.09-0.112,1.366,0.367l1.498,2.599C34.63,40.443,34.465,41.054,33.987,41.33z"/><path fill="#61e3a7" d="M29.155,43.325c-0.533,0.142-1.081-0.174-1.224-0.709l-0.773-2.899	c-0.142-0.534,0.175-1.082,0.709-1.224c0.533-0.142,1.081,0.174,1.224,0.709l0.773,2.899C30.006,42.636,29.689,43.183,29.155,43.325	z"/><path fill="#33c481" d="M18.809,43.315c-0.533-0.143-0.85-0.691-0.706-1.225l0.779-2.897	c0.144-0.534,0.692-0.849,1.225-0.706c0.533,0.143,0.85,0.691,0.706,1.225l-0.779,2.897C19.89,43.143,19.342,43.458,18.809,43.315z"/><linearGradient id="E~_JSm0u_~mqhRwdDvrPVe" x1="-9.382" x2="25.142" y1="14.53" y2="49.054" gradientUnits="userSpaceOnUse"><stop offset="0" stop-color="#33c481"/><stop offset="1" stop-color="#21a366"/></linearGradient><path fill="url(#E~_JSm0u_~mqhRwdDvrPVe)" d="M13.981,41.309c-0.478-0.277-0.641-0.888-0.364-1.366l1.503-2.596	c0.277-0.479,0.889-0.641,1.366-0.364c0.478,0.277,0.641,0.888,0.364,1.366l-1.503,2.596C15.071,41.424,14.459,41.586,13.981,41.309	z"/><linearGradient id="E~_JSm0u_~mqhRwdDvrPVf" x1="4.542" x2="39.066" y1=".607" y2="35.131" gradientUnits="userSpaceOnUse"><stop offset="0" stop-color="#33c481"/><stop offset="1" stop-color="#21a366"/></linearGradient><path fill="url(#E~_JSm0u_~mqhRwdDvrPVf)" d="M24,4C12.955,4,4,12.955,4,24c0,0.552,0.447,1,1,1h3c0.553,0,1-0.448,1-1	c0-8.284,6.716-15,15-15s15,6.716,15,15c0,0.552,0.447,1,1,1h3c0.553,0,1-0.448,1-1C44,12.955,35.045,4,24,4z"/></svg>