<?xml version="1.0" encoding="utf-8"?>
<!-- Generator: Adobe Illustrator 26.0.3, SVG Export Plug-In . SVG Version: 6.00 Build 0)  -->
<svg version="1.1" id="Layer_1" xmlns="http://www.w3.org/2000/svg" xmlns:xlink="http://www.w3.org/1999/xlink" x="0px" y="0px"
	 viewBox="0 0 50 50" style="enable-background:new 0 0 50 50;" xml:space="preserve">
<style type="text/css">
	.st0{opacity:0.8;fill:#EFC9BD;}
</style>
<rect x="10" y="7" class="st0" width="29.9" height="23.7"/>
<path d="M9.9,6C9.9,6,9.8,6,9.9,6H3C2.4,6,2,6.4,2,7v24v0.1C2,31.6,2.5,32,3,32h44c0.6,0,1-0.4,1-1V7c0-0.6-0.4-1-1-1h-6.8
	c-0.1,0-0.2,0-0.3,0h-0.1H10.2C10.1,6,10,6,9.9,6z M4,8h5v22H4V8z M11,8h28v22H11V8z M41,8h5v22h-5V8z M25,11c-2.9,0-5.3,2.2-5.8,5
	H19c-2.2,0-4,1.8-4,4s1.8,4,4,4c0.4,0,0.7-0.2,0.9-0.5c0.2-0.3,0.2-0.7,0-1C19.7,22.2,19.4,22,19,22c-1.1,0-2-0.9-2-2s0.9-2,2-2h1
	c0.6,0,1-0.4,1-1c0-2.2,1.8-4,4-4s4,1.8,4,4c0,0.6,0.4,1,1,1h1c1.1,0,2,0.9,2,2s-0.9,2-2,2c-0.4,0-0.7,0.2-0.9,0.5
	c-0.2,0.3-0.2,0.7,0,1S30.6,24,31,24c2.2,0,4-1.8,4-4s-1.8-4-4-4h-0.2C30.3,13.2,27.9,11,25,11z M37.9,33L37.9,33
	c-0.6,0.1-0.9,0.5-0.9,1v2.6c-0.7-0.2-1.5-0.4-2.4-0.6c-6.7-1.5-17-3-31.6-3H2.9H2.8c-0.6,0.1-1,0.5-0.9,1.1s0.5,1,1.1,0.9
	c14.5,0,24.6,1.5,31.2,3s9.4,2.9,9.4,2.9c0.3,0.2,0.7,0.1,1-0.1c0.3-0.2,0.5-0.5,0.5-0.9v-6c0-0.4-0.2-0.7-0.5-0.9s-0.7-0.2-1,0
	c-0.4,0.3-0.6,0.6-0.6,1v4.5c-0.8-0.3-2.1-0.8-4-1.4V34c0-0.3-0.1-0.6-0.3-0.8S38.2,32.9,37.9,33z M2.7,36c-0.6,0.1-0.9,0.6-0.9,1.1
	s0.6,1,1.2,0.9c13.3,0,22.7,2.5,28.7,4.9s8.7,4.8,8.7,4.8c0.3,0.3,0.7,0.3,1.1,0.2c0.4-0.2,0.6-0.5,0.6-0.9v-5
	c0-0.4-0.2-0.7-0.5-0.9s-0.7-0.2-1,0C40.2,41.3,40,41.6,40,42v3.1c-0.7-0.5-1.7-1.2-3-1.9v-2.5c0-0.3-0.1-0.6-0.3-0.8
	s-0.5-0.3-0.8-0.2c-0.5,0.1-0.9,0.5-0.9,1v1.5c-0.8-0.4-1.6-0.7-2.6-1.1C26.2,38.5,16.6,36,3,36H2.9C2.9,36,2.8,36,2.7,36
	C2.8,36,2.8,36,2.7,36z"/>
</svg>
