<?xml version="1.0" encoding="utf-8"?>
<!-- Generator: Adobe Illustrator 26.0.3, SVG Export Plug-In . SVG Version: 6.00 Build 0)  -->
<svg version="1.1" id="Layer_1" xmlns="http://www.w3.org/2000/svg" xmlns:xlink="http://www.w3.org/1999/xlink" x="0px" y="0px"
	 viewBox="0 0 50 50" style="enable-background:new 0 0 50 50;" xml:space="preserve">
<style type="text/css">
	.st0{fill:#D9EAB9;}
</style>
<ellipse class="st0" cx="25" cy="25" rx="19.3" ry="19.9"/>
<path d="M25,5C14,5,5,14,5,25c0,0.6,0.4,1,1,1s1-0.4,1-1l0,0C7,15,15,7,25,7c6.2,0,11.7,3.2,15,8h-5c-0.6,0-1,0.4-1,1s0.4,1,1,1l0,0
	h9V8c0-0.6-0.4-1-1-1l0,0c-0.6,0-1,0.5-1,1v6.5C38.5,8.8,32.2,5,25,5z M30,16c-0.3,0-0.6,0.2-0.8,0.5l-10,16
	c-0.3,0.5-0.2,1.1,0.3,1.4c0.5,0.3,1.1,0.2,1.4-0.3c0,0,0,0,0-0.1l10-16c0.3-0.5,0.2-1.1-0.3-1.4C30.4,16.1,30.2,16,30,16L30,16z
	 M20,16c-1.6,0-3,1.4-3,3v2v1h0.4c0.4,1.1,1.3,2,2.6,2c1.6,0,3-1.4,3-3v-2C23,17.4,21.6,16,20,16z M20,18c0.6,0,1,0.4,1,1v2
	c0,0.6-0.4,1-1,1s-1-0.4-1-1v-2C19,18.4,19.4,18,20,18z M44,24c-0.6,0-1,0.5-1,1c0,10-8,18-18,18c-6.2,0-11.7-3.2-15-8h5
	c0.6,0,1-0.4,1-1s-0.4-1-1-1l0,0H8.4c-0.1,0-0.3,0-0.4,0l0,0H6v9c0,0.6,0.4,1,1,1s1-0.4,1-1l0,0v-6.5c3.5,5.7,9.8,9.5,17,9.5
	c11,0,20-9,20-20C45,24.4,44.6,24,44,24L44,24z M30,26c-1.6,0-3,1.4-3,3v2v1h0.4c0.4,1.1,1.3,2,2.6,2c1.6,0,3-1.4,3-3v-2
	C33,27.4,31.6,26,30,26z M30,28c0.6,0,1,0.4,1,1v2c0,0.6-0.4,1-1,1s-1-0.4-1-1v-2C29,28.4,29.4,28,30,28z"/>
</svg>
