<?xml version="1.0" encoding="utf-8"?>
<!-- Generator: Adobe Illustrator 26.0.3, SVG Export Plug-In . SVG Version: 6.00 Build 0)  -->
<svg version="1.1" id="Layer_1" xmlns="http://www.w3.org/2000/svg" xmlns:xlink="http://www.w3.org/1999/xlink" x="0px" y="0px"
	 viewBox="0 0 50 50" style="enable-background:new 0 0 50 50;" xml:space="preserve">
<style type="text/css">
	.st0{fill:#C6AAE4;}
</style>
<rect x="2.3" y="7" class="st0" width="22.7" height="23.5"/>
<path d="M10,6c0,0-0.1,0-0.1,0H2C1.4,6,1,6.4,1,7v24c0,0.6,0.4,1,1,1h7.8c0.1,0,0.2,0,0.3,0H25v-2H11V8h14V6H10.2C10.1,6,10,6,10,6z
	 M28,6c-0.6,0-1,0.4-1,1s0.4,1,1,1s1-0.4,1-1S28.6,6,28,6z M32,6c-0.6,0-1,0.4-1,1s0.4,1,1,1s1-0.4,1-1S32.6,6,32,6z M36,6
	c-0.6,0-1,0.4-1,1s0.4,1,1,1s1-0.4,1-1S36.6,6,36,6z M40,6c-0.6,0-1,0.4-1,1s0.4,1,1,1s1-0.4,1-1S40.6,6,40,6z M44,6
	c-0.6,0-1,0.4-1,1s0.4,1,1,1s1-0.4,1-1S44.6,6,44,6z M48,6c-0.6,0-1,0.4-1,1s0.4,1,1,1s1-0.4,1-1S48.6,6,48,6z M3,8h6v22H3V8z
	 M40,10c-0.6,0-1,0.4-1,1s0.4,1,1,1s1-0.4,1-1S40.6,10,40,10z M48,10c-0.6,0-1,0.4-1,1s0.4,1,1,1s1-0.4,1-1S48.6,10,48,10z M25,12
	c-3,0-5.3,2.2-5.8,5H19c-2.2,0-4,1.8-4,4c0,2.1,1.7,3.9,3.8,4c0.1,0,0.1,0,0.2,0c0.6,0,1-0.4,1-1s-0.4-1-1-1c-1.2,0-2-0.8-2-2
	s0.8-2,2-2h1c0.6,0,1-0.4,1-1c0-2.3,1.7-4,4-4V12z M28,13c-0.6,0-1,0.4-1,1s0.4,1,1,1s1-0.4,1-1S28.6,13,28,13z M40,14
	c-0.6,0-1,0.4-1,1s0.4,1,1,1s1-0.4,1-1S40.6,14,40,14z M48,14c-0.6,0-1,0.4-1,1s0.4,1,1,1s1-0.4,1-1S48.6,14,48,14z M30,17
	c-0.6,0-1,0.4-1,1s0.4,1,1,1s1-0.4,1-1S30.6,17,30,17z M40,18c-0.6,0-1,0.4-1,1s0.4,1,1,1s1-0.4,1-1S40.6,18,40,18z M48,18
	c-0.6,0-1,0.4-1,1s0.4,1,1,1s1-0.4,1-1S48.6,18,48,18z M34,20c-0.6,0-1,0.4-1,1s0.4,1,1,1s1-0.4,1-1S34.6,20,34,20z M40,22
	c-0.6,0-1,0.4-1,1s0.4,1,1,1s1-0.4,1-1S40.6,22,40,22z M48,22c-0.6,0-1,0.4-1,1s0.4,1,1,1s1-0.4,1-1S48.6,22,48,22z M31,23
	c-0.6,0-1,0.4-1,1s0.4,1,1,1s1-0.4,1-1S31.6,23,31,23z M40,26c-0.6,0-1,0.4-1,1s0.4,1,1,1s1-0.4,1-1S40.6,26,40,26z M48,26
	c-0.6,0-1,0.4-1,1s0.4,1,1,1s1-0.4,1-1S48.6,26,48,26z M28,30c-0.6,0-1,0.4-1,1s0.4,1,1,1s1-0.4,1-1S28.6,30,28,30z M32,30
	c-0.6,0-1,0.4-1,1s0.4,1,1,1s1-0.4,1-1S32.6,30,32,30z M36,30c-0.6,0-1,0.4-1,1s0.4,1,1,1s1-0.4,1-1S36.6,30,36,30z M40,30
	c-0.6,0-1,0.4-1,1s0.4,1,1,1s1-0.4,1-1S40.6,30,40,30z M44,30c-0.6,0-1,0.4-1,1s0.4,1,1,1s1-0.4,1-1S44.6,30,44,30z M48,30
	c-0.6,0-1,0.4-1,1s0.4,1,1,1s1-0.4,1-1S48.6,30,48,30z M2,34c-0.6,0-1,0.4-1,1s0.4,1,1,1h23v-2H2z M28,34c-0.6,0-1,0.4-1,1
	s0.4,1,1,1s1-0.4,1-1S28.6,34,28,34z M32,34c-0.6,0-1,0.4-1,1s0.4,1,1,1s1-0.4,1-1S32.6,34,32,34z M36,34c-0.6,0-1,0.4-1,1
	s0.4,1,1,1s1-0.4,1-1S36.6,34,36,34z M40,34c-0.6,0-1,0.4-1,1s0.4,1,1,1s1-0.4,1-1S40.6,34,40,34z M44,34c-0.6,0-1,0.4-1,1
	s0.4,1,1,1s1-0.4,1-1S44.6,34,44,34z M48,34c-0.6,0-1,0.4-1,1s0.4,1,1,1s1-0.4,1-1S48.6,34,48,34z M2,38c-0.6,0-1,0.4-1,1s0.4,1,1,1
	h23v-2H2z M28,38c-0.6,0-1,0.4-1,1s0.4,1,1,1s1-0.4,1-1S28.6,38,28,38z M32,38c-0.6,0-1,0.4-1,1s0.4,1,1,1s1-0.4,1-1S32.6,38,32,38z
	 M36,38c-0.6,0-1,0.4-1,1s0.4,1,1,1s1-0.4,1-1S36.6,38,36,38z M40,38c-0.6,0-1,0.4-1,1s0.4,1,1,1s1-0.4,1-1S40.6,38,40,38z M44,38
	c-0.6,0-1,0.4-1,1s0.4,1,1,1s1-0.4,1-1S44.6,38,44,38z M48,38c-0.6,0-1,0.4-1,1s0.4,1,1,1s1-0.4,1-1S48.6,38,48,38z M2,42
	c-0.6,0-1,0.4-1,1s0.4,1,1,1h23v-2H2z M28,42c-0.6,0-1,0.4-1,1s0.4,1,1,1s1-0.4,1-1S28.6,42,28,42z M32,42c-0.6,0-1,0.4-1,1
	s0.4,1,1,1s1-0.4,1-1S32.6,42,32,42z M36,42c-0.6,0-1,0.4-1,1s0.4,1,1,1s1-0.4,1-1S36.6,42,36,42z M40,42c-0.6,0-1,0.4-1,1
	s0.4,1,1,1s1-0.4,1-1S40.6,42,40,42z M44,42c-0.6,0-1,0.4-1,1s0.4,1,1,1s1-0.4,1-1S44.6,42,44,42z M48,42c-0.6,0-1,0.4-1,1
	s0.4,1,1,1s1-0.4,1-1S48.6,42,48,42z"/>
</svg>
