<?xml version="1.0" encoding="utf-8"?>
<!-- Generator: Adobe Illustrator 26.0.3, SVG Export Plug-In . SVG Version: 6.00 Build 0)  -->
<svg version="1.1" id="Layer_1" xmlns="http://www.w3.org/2000/svg" xmlns:xlink="http://www.w3.org/1999/xlink" x="0px" y="0px"
	 viewBox="0 0 50 50" style="enable-background:new 0 0 50 50;" xml:space="preserve">
<style type="text/css">
	.st0{fill:#FCDDB8;}
	.st1{display:none;fill:#CFD8DC;}
</style>
<polygon class="st0" points="49.5,34.9 40.4,39.2 29.1,39.2 29.3,31.3 29.1,21.7 20.7,17.9 21.2,7.3 29.3,10.6 41.3,10.7 49.1,6.9 
	"/>
<polygon class="st1" points="0.8,24.5 5.1,26.7 13.1,27.9 20.4,27.6 25.6,26.6 28.7,24.5 29.1,42.8 28.5,45.5 22.8,48.3 15.3,49 
	9.1,48.7 3.2,47.1 1,45.2 "/>
<path d="M35,0c-4,0-7.6,0.6-10.2,1.5c-1.3,0.5-2.4,1-3.3,1.8S20,4.9,20,6c0,0.2,0,0.4,0.1,0.6C20,6.7,20,6.9,20,7v6
	c0,0.2,0,0.4,0.1,0.6c0,0.1-0.1,0.3-0.1,0.4v3.3c-1.6-0.2-3.2-0.3-5-0.3c-4,0-7.6,0.6-10.2,1.5c-1.3,0.5-2.4,1-3.3,1.8S0,21.9,0,23
	c0,0.2,0,0.4,0.1,0.6C0,23.7,0,23.9,0,24v6c0,0.2,0,0.4,0.1,0.6C0,30.7,0,30.9,0,31v6c0,0.2,0,0.4,0.1,0.6C0,37.7,0,37.9,0,38v6
	c0,1.1,0.6,2,1.5,2.7s1.9,1.3,3.3,1.8C7.4,49.4,11,50,15,50s7.6-0.6,10.2-1.5c1.3-0.5,2.4-1,3.3-1.8S30,45.1,30,44v-4.3
	c1.6,0.2,3.2,0.3,5,0.3c4,0,7.6-0.6,10.2-1.5c1.3-0.5,2.4-1,3.3-1.8S50,35.1,50,34v-6c0-0.1,0-0.3-0.1-0.4c0-0.2,0.1-0.4,0.1-0.6v-6
	c0-0.1,0-0.3-0.1-0.4c0-0.2,0.1-0.4,0.1-0.6v-6c0-0.1,0-0.3-0.1-0.4c0-0.2,0.1-0.4,0.1-0.6V7c0-0.1,0-0.3-0.1-0.4
	C49.9,6.4,50,6.2,50,6c0-1.1-0.6-2-1.5-2.7S46.6,2,45.2,1.5C42.6,0.6,39,0,35,0z M35,2c3.8,0,7.2,0.6,9.6,1.4
	c1.2,0.4,2.1,0.9,2.7,1.4S48,5.7,48,6s-0.2,0.7-0.8,1.2s-1.5,1-2.7,1.4C42.2,9.4,38.8,10,35,10s-7.2-0.6-9.6-1.4
	c-1.2-0.4-2.1-0.9-2.7-1.4S22,6.3,22,6s0.2-0.7,0.8-1.2s1.5-1,2.7-1.4C27.8,2.6,31.2,2,35,2z M22,9.1c0.8,0.5,1.7,1,2.8,1.4
	C27.4,11.4,31,12,35,12s7.6-0.6,10.2-1.5c1.1-0.4,2-0.8,2.8-1.4V13c0,0.3-0.2,0.7-0.8,1.2s-1.5,1-2.7,1.4C42.2,16.4,38.8,17,35,17
	s-7.2-0.6-9.6-1.4c-1.2-0.4-2.1-0.9-2.7-1.4S22,13.3,22,13V9.1z M22,16.1c0.8,0.5,1.7,1,2.8,1.4C27.4,18.4,31,19,35,19
	s7.6-0.6,10.2-1.5c1.1-0.4,2-0.8,2.8-1.4V20c0,0.3-0.2,0.7-0.8,1.2s-1.5,1-2.7,1.4C42.2,23.4,38.8,24,35,24c-1.8,0-3.5-0.1-5.1-0.3
	c0,0,0,0,0-0.1c0-0.2,0.1-0.4,0.1-0.6c0-1.1-0.6-2-1.5-2.7s-1.9-1.3-3.3-1.8c-1-0.3-2.1-0.6-3.2-0.9V16.1z M15,19
	c3.8,0,7.2,0.6,9.6,1.4c1.2,0.4,2.1,0.9,2.7,1.4S28,22.7,28,23s-0.2,0.7-0.8,1.2s-1.5,1-2.7,1.4C22.2,26.4,18.8,27,15,27
	s-7.2-0.6-9.6-1.4c-1.2-0.4-2.1-0.9-2.7-1.4C2.2,23.7,2,23.3,2,23s0.2-0.7,0.8-1.2s1.5-1,2.7-1.4C7.8,19.6,11.2,19,15,19z M48,23.1
	V27c0,0.3-0.2,0.7-0.8,1.2s-1.5,1-2.7,1.4C42.2,30.4,38.8,31,35,31c-1.8,0-3.5-0.1-5.1-0.4l0,0l0,0c0-0.2,0.1-0.4,0.1-0.6v-4.3
	c1.6,0.2,3.2,0.3,5,0.3c4,0,7.6-0.6,10.2-1.5C46.3,24.1,47.2,23.6,48,23.1z M2,26.1c0.8,0.5,1.7,1,2.8,1.4C7.4,28.4,11,29,15,29
	s7.6-0.6,10.2-1.5c1.1-0.4,2-0.8,2.8-1.4V30c0,0.3-0.2,0.7-0.8,1.2s-1.5,1-2.7,1.4C22.2,33.4,18.8,34,15,34s-7.2-0.6-9.6-1.4
	c-1.2-0.4-2.1-0.9-2.7-1.4C2.2,30.7,2,30.3,2,30V26.1z M48,30.1V34c0,0.3-0.2,0.7-0.8,1.2s-1.5,1-2.7,1.4C42.2,37.4,38.8,38,35,38
	c-1.8,0-3.5-0.1-5.1-0.4l0,0c0-0.2,0.1-0.4,0.1-0.6v-4.3c1.6,0.2,3.2,0.3,5,0.3c4,0,7.6-0.6,10.2-1.5C46.3,31.1,47.2,30.6,48,30.1z
	 M2,33.1c0.8,0.5,1.7,1,2.8,1.4C7.4,35.4,11,36,15,36s7.6-0.6,10.2-1.5c1.1-0.4,2-0.8,2.8-1.4V37c0,0.3-0.2,0.7-0.8,1.2
	s-1.5,1-2.7,1.4C22.2,40.4,18.8,41,15,41s-7.2-0.6-9.6-1.4c-1.2-0.4-2.1-0.9-2.7-1.4C2.2,37.7,2,37.3,2,37V33.1z M2,40.1
	c0.8,0.5,1.7,1,2.8,1.4C7.4,42.4,11,43,15,43s7.6-0.6,10.2-1.5c1.1-0.4,2-0.8,2.8-1.4V44c0,0.3-0.2,0.7-0.8,1.2s-1.5,1-2.7,1.4
	C22.2,47.4,18.8,48,15,48s-7.2-0.6-9.6-1.4c-1.2-0.4-2.1-0.9-2.7-1.4C2.2,44.7,2,44.3,2,44V40.1z"/>
</svg>
