<?xml version="1.0" encoding="utf-8"?>
<!-- Generator: Adobe Illustrator 25.4.1, SVG Export Plug-In . SVG Version: 6.00 Build 0)  -->
<svg version="1.1" id="Layer_1" xmlns="http://www.w3.org/2000/svg" xmlns:xlink="http://www.w3.org/1999/xlink" x="0px" y="0px"
	 viewBox="0 0 40 40" style="enable-background:new 0 0 40 40;" xml:space="preserve">
<style type="text/css">
	.st0{fill:#E2E0EF;}
	.st1{opacity:0.85;}
</style>
<rect x="0.9" y="17.5" class="st0" width="38.4" height="21.6"/>
<path class="st1" d="M21,0.1v1.8h6.9L21,8.8l-4.5-4.5l-7.9,7.9l1.3,1.3l6.6-6.6l4.5,4.5l8.2-8.2v6.9H31v-10H21z M7.3,16.4
	c0,0-0.1,0-0.1,0H1c-0.5,0-0.9,0.4-0.9,0.9v21.8c0,0.5,0.4,0.9,0.9,0.9h6.2c0.1,0,0.2,0,0.3,0h25.2c0.1,0,0.2,0,0.3,0h6.2
	c0.5,0,0.9-0.4,0.9-0.9V17.3c0-0.5-0.4-0.9-0.9-0.9h-6.2c-0.1,0-0.1,0-0.2,0c0,0-0.1,0-0.1,0H7.5C7.4,16.4,7.4,16.4,7.3,16.4z
	 M1.9,18.3h4.5v20H1.9V18.3z M8.2,18.3h23.6v20H8.2V18.3z M33.7,18.3h4.5v20h-4.5V18.3z M20.1,21.9c-2.7,0-4.8,2-5.3,4.5h-0.2
	c-2,0-3.6,1.6-3.6,3.6s1.6,3.6,3.6,3.6c0.3,0,0.6-0.2,0.8-0.5c0.2-0.3,0.2-0.6,0-0.9c-0.2-0.3-0.5-0.5-0.8-0.5c-1,0-1.8-0.8-1.8-1.8
	s0.8-1.8,1.8-1.8h0.9c0.5,0,0.9-0.4,0.9-0.9c0-2,1.6-3.6,3.6-3.6s3.6,1.6,3.6,3.6c0,0.5,0.4,0.9,0.9,0.9h0.9c1,0,1.8,0.8,1.8,1.8
	s-0.8,1.8-1.8,1.8c-0.3,0-0.6,0.2-0.8,0.5c-0.2,0.3-0.2,0.6,0,0.9c0.2,0.3,0.5,0.5,0.8,0.5c2,0,3.6-1.6,3.6-3.6s-1.6-3.6-3.6-3.6
	h-0.2C24.9,23.9,22.7,21.9,20.1,21.9z"/>
</svg>
