<?xml version="1.0" encoding="utf-8"?>
<!-- Generator: Adobe Illustrator 26.0.2, SVG Export Plug-In . SVG Version: 6.00 Build 0)  -->
<svg version="1.1" id="Layer_1" xmlns="http://www.w3.org/2000/svg" xmlns:xlink="http://www.w3.org/1999/xlink" x="0px" y="0px"
	 viewBox="0 0 32 32" style="enable-background:new 0 0 32 32;" xml:space="preserve">
<style type="text/css">
	.st0{fill:#DDDAE2;}
</style>
<polygon class="st0" points="29.1,32 2.9,32 2.4,14.1 8.6,18.5 15.9,8.6 23.9,19.2 30.8,12.4 "/>
<path d="M23.9,16.9l-6.5-8.4l2.9-3.7L15.9,0l-4.3,4.8l2.9,3.7l-6.4,8.3l-7.9-6.7l2.4,22H29l2.9-22.2L23.9,16.9z M15.9,3.5l1.3,1.4
	l-1.3,1.7l-1.3-1.7L15.9,3.5z M27.5,25.3H6.9v2.4h20.3l-0.3,2.1H4.6L3.1,15.7l5.3,4.5l7.5-9.7l7.7,9.9l5.1-4.5L27.5,25.3z"/>
</svg>
