<?xml version="1.0" encoding="utf-8"?>
<!-- Generator: Adobe Illustrator 25.4.1, SVG Export Plug-In . SVG Version: 6.00 Build 0)  -->
<svg version="1.1" id="Layer_1" xmlns="http://www.w3.org/2000/svg" xmlns:xlink="http://www.w3.org/1999/xlink" x="0px" y="0px"
	 viewBox="0 0 32 32" style="enable-background:new 0 0 32 32;" xml:space="preserve">
<style type="text/css">
	.st0{fill:#DDDAE2;}
	.st1{opacity:0.9;fill:#1A1A1A;}
</style>
<circle class="st0" cx="15.9" cy="8.1" r="6.6"/>
<polygon class="st0" points="29.1,32 2.9,32 2.9,20.9 6.9,18 11.9,18 15.6,21.8 19.4,18 24.6,18 29.1,22.2 "/>
<path class="st1" d="M17.7,0.3C17,0.1,16.4,0,15.7,0c-4.4,0-8,3.6-8,8c0,4.4,3.6,8,8,8c4.4,0,8-3.6,8-8c0-3-1.6-5.5-4-6.9
	c0,0-0.4-0.2-1-0.5S17.7,0.3,17.7,0.3z M21.7,8c0,3.3-2.7,6-6,6c-3.3,0-6-2.7-6-6c0-3.3,2.7-6,6-6C19,2,21.7,4.7,21.7,8z M26.4,18.1
	l-5.4-2c-0.4-0.1-0.8,0-1.1,0.2l-4.3,4.3l-4.3-4.3c-0.3-0.3-0.7-0.4-1.1-0.2l-5.4,2c-1.9,0.7-3.2,2.6-3.2,4.7V32h2v-9.2
	c0-1.2,0.8-2.4,1.9-2.8l4.8-1.8l4.5,4.5c0.4,0.4,1,0.4,1.4,0l4.5-4.5l4.8,1.8c1.2,0.4,1.9,1.6,1.9,2.8V32h2v-9.2
	C29.7,20.7,28.4,18.8,26.4,18.1z M7.7,24c-0.6,0-1,0.4-1,1v7h2v-7C8.7,24.5,8.2,24,7.7,24z M23.7,24c-0.6,0-1,0.4-1,1v7h2v-7
	C24.7,24.5,24.2,24,23.7,24z"/>
</svg>
