<?xml version="1.0" encoding="utf-8"?>
<!-- Generator: Adobe Illustrator 25.4.1, SVG Export Plug-In . SVG Version: 6.00 Build 0)  -->
<svg version="1.1" id="Layer_1" xmlns="http://www.w3.org/2000/svg" xmlns:xlink="http://www.w3.org/1999/xlink" x="0px" y="0px"
	 viewBox="0 0 32 32" style="enable-background:new 0 0 32 32;" xml:space="preserve">
<style type="text/css">
	.st0{fill:#EEECF0;}
	.st1{opacity:0.85;}
</style>
<circle class="st0" cx="16.1" cy="15.8" r="15.1"/>
<path class="st1" d="M28.7,6.9v-5c0-0.4-0.3-0.8-0.8-0.8s-0.8,0.3-0.8,0.8v3c-3-3-7-4.7-11.3-4.7c-0.7,0-1.3,0.1-2,0.1
	c-0.4,0.1-0.7,0.4-0.7,0.8s0.4,0.7,0.8,0.7c0.6-0.1,1.2-0.1,1.8-0.1c4,0,7.7,1.6,10.4,4.5H23c-0.4,0-0.8,0.3-0.8,0.8
	s0.3,0.8,0.8,0.8h5C28.4,7.6,28.7,7.3,28.7,6.9z M0.3,17.9c0.1,0.4,0.4,0.7,0.8,0.7h0.1c0.4-0.1,0.7-0.4,0.7-0.8
	c-0.1-0.6-0.1-1.2-0.1-1.8c0-4,1.6-7.7,4.5-10.4V9c0,0.4,0.3,0.8,0.8,0.8S7.9,9.5,7.9,9V4c0-0.4-0.3-0.8-0.8-0.8h-5
	C1.7,3.2,1.3,3.5,1.3,4s0.3,0.8,0.8,0.8h3c-3,3-4.7,7-4.7,11.3C0.2,16.6,0.2,17.2,0.3,17.9z M30.8,13.3c-0.4,0.1-0.7,0.4-0.7,0.8
	c0.1,0.6,0.1,1.2,0.1,1.8c0,4-1.6,7.7-4.5,10.4v-3.4c0-0.4-0.3-0.8-0.8-0.8s-0.8,0.3-0.8,0.8v5c0,0.4,0.3,0.8,0.8,0.8h5
	c0.4,0,0.8-0.3,0.8-0.8s-0.3-0.8-0.8-0.8h-3c3-3,4.7-7,4.7-11.3c0-0.7-0.1-1.3-0.1-2C31.6,13.6,31.2,13.3,30.8,13.3z M9.7,24.9
	c0-0.4-0.3-0.8-0.8-0.8h-5c-0.4,0-0.8,0.3-0.8,0.8v5c0,0.4,0.3,0.8,0.8,0.8c0.4,0,0.8-0.3,0.8-0.8v-3c3,3,7,4.7,11.3,4.7
	c0.7,0,1.3-0.1,2-0.1c0.4-0.1,0.7-0.4,0.7-0.8c-0.1-0.4-0.4-0.7-0.8-0.7c-0.6,0.1-1.2,0.1-1.8,0.1c-4,0-7.7-1.6-10.4-4.5H9
	C9.4,25.7,9.7,25.3,9.7,24.9z"/>
</svg>
