<?xml version="1.0" encoding="utf-8"?>
<!-- Generator: Adobe Illustrator 25.4.1, SVG Export Plug-In . SVG Version: 6.00 Build 0)  -->
<svg version="1.1" id="Layer_1" xmlns="http://www.w3.org/2000/svg" xmlns:xlink="http://www.w3.org/1999/xlink" x="0px" y="0px"
	 viewBox="0 0 35 46" style="enable-background:new 0 0 35 46;" xml:space="preserve">
<style type="text/css">
	.st0{fill:#DDDAE2;}
	.st1{opacity:0.9;}
</style>
<polygon class="st0" points="13.9,44.7 4.9,44.3 4.7,31.8 2.7,32 0.5,30.2 0.5,17.4 4.3,14.1 27.5,14.1 27.5,17.8 15.4,18.3 "/>
<circle class="st0" cx="10.3" cy="6" r="5.2"/>
<path class="st1" d="M10.1,0.1c-3.3,0-6,2.7-6,6s2.7,6,6,6s6-2.7,6-6S13.4,0.1,10.1,0.1z M26.1,0.1c-0.6,0-1,0.4-1,1v6v6H5.6
	c-3,0-5.5,2.5-5.5,5.5v11.5c0,1.6,1.4,3,3,3c0.4,0,0.7-0.1,1-0.2v9.7c0,1.9,1.6,3.5,3.5,3.5c1,0,1.9-0.4,2.5-1.1
	c0.7,0.7,1.7,1.2,2.8,1.1c1.9-0.2,3.1-1.8,3.1-3.6V19.1h9.9c1.5,0,2.8-1,3.1-2.5c0.2-1.5-0.7-2.8-2-3.3V8.1h7c0.6,0,1-0.4,1-1
	c0-0.3-0.1-0.5-0.3-0.7l-2.3-2.3l2.3-2.3c0.4-0.4,0.4-1,0-1.4c-0.2-0.2-0.4-0.3-0.7-0.3H26.1z M10.1,2.1c2.2,0,4,1.8,4,4s-1.8,4-4,4
	s-4-1.8-4-4S7.8,2.1,10.1,2.1z M27.1,2.1h4.6l-1.3,1.3c-0.4,0.4-0.4,1,0,1.4l1.3,1.3h-4.6V2.1z M5.6,15.1h20.5c0.6,0,1.1,0.5,1,1.2
	c-0.1,0.5-0.6,0.8-1.1,0.8h-9.9c-1.1,0-2,0.9-2,2v23.4c0,0.8-0.6,1.6-1.3,1.6c-0.9,0.1-1.7-0.6-1.7-1.5V31.1h-2v11.5
	c0,0.8-0.7,1.5-1.5,1.5c-0.8,0-1.5-0.7-1.5-1.5V21.1h-2v9c0,0.6-0.4,1-1,1s-1-0.4-1-1V18.6C2.1,16.6,3.6,15.1,5.6,15.1z"/>
</svg>
